<?xml version="1.0" encoding="UTF-8" standalone="no"?><!DOCTYPE svg PUBLIC "-//W3C//DTD SVG 1.1//EN" "http://www.w3.org/Graphics/SVG/1.1/DTD/svg11.dtd"><svg width="100%" height="100%" viewBox="0 0 240 240" version="1.1" xmlns="http://www.w3.org/2000/svg" xmlns:xlink="http://www.w3.org/1999/xlink" xml:space="preserve" xmlns:serif="http://www.serif.com/" style="fill-rule:evenodd;clip-rule:evenodd;stroke-miterlimit:1.41421;"><path d="M147.363,87.651c15.015,21.868 32.858,45.856 31.362,71.942" style="fill:none;stroke:#80b8e7;stroke-width:0.36px;"/><path d="M178.725,159.593c-0.499,8.182 -2.498,15.972 -5.995,23.369" style="fill:none;stroke:#80b0df;stroke-width:0.36px;"/><path d="M172.73,182.962c-17.634,34.497 -58.131,42.843 -91.268,26.017c-0.767,-0.392 -0.787,-0.357 -0.058,0.102c15.846,9.984 33.189,14.662 52.031,14.032" style="fill:none;stroke:#81a5d3;stroke-width:0.36px;"/><path d="M133.435,223.113c0.184,0.053 0.296,0.174 0.337,0.352c0.04,0.156 0.138,0.247 0.296,0.27c2.484,0.322 4.965,0.27 7.442,-0.153c5.417,-0.92 10.744,-2.207 15.985,-3.862c0.831,-0.265 1.422,-0.948 2.337,-1.198c0.915,-0.255 1.384,-0.387 1.41,-0.397c8.266,-3.207 15.747,-7.718 22.449,-13.537c1.631,-1.415 4.085,-3.847 7.361,-7.291c1.208,-1.274 2.304,-3.084 3.648,-4.708c1.743,-2.118 3.696,-5.243 5.852,-9.372c1.218,-2.325 2.139,-4.978 3.245,-7.512c0.989,-2.266 1.437,-4.882 2.462,-7.293c0.438,-1.035 0.803,-3.502 1.091,-7.399c0.01,-0.15 -0.049,-0.271 -0.176,-0.357c-0.311,-0.216 -0.507,-0.489 -0.594,-0.818" style="fill:none;stroke:#e8f1fa;stroke-width:0.36px;"/><path d="M206.58,159.838c4.458,-40.944 -24.098,-72.475 -47.201,-102.163c-9.422,-12.107 -21.256,-28.453 -20.4,-44.624c0.245,-4.58 1.43,-8.46 3.334,-12.895c0.08,-0.179 0.044,-0.204 -0.102,-0.074c-5.977,5.194 -10.945,11.052 -14.904,17.57c-9.597,15.809 -3.069,33.017 5.379,47.497c4.3,7.369 9.194,14.871 14.677,22.502" style="fill:none;stroke:#81a5d3;stroke-width:0.36px;"/><path d="M206.58,159.838c-4.614,34.826 -33.067,58.532 -66.915,62.541c-2.078,0.247 -4.155,0.492 -6.23,0.734" style="fill:none;stroke:#6a97cd;stroke-width:0.36px;"/><path d="M172.73,182.962c0.321,0.665 0.27,1.358 -0.158,2.08c-2.095,3.543 -4.106,6.673 -6.038,9.39c-0.115,0.161 -0.135,0.332 -0.059,0.51l0.318,0.77c0.051,0.12 0.141,0.168 0.268,0.14c0.788,-0.153 1.463,-0.52 2.027,-1.101c0.981,-1.014 2.115,-1.807 3.397,-2.378c1.165,-0.518 1.912,-1.474 3.082,-2.055c0.069,-0.035 0.1,-0.018 0.089,0.059c-0.008,0.051 -0.025,0.097 -0.053,0.132c-0.337,0.436 -0.299,0.472 0.112,0.103c2.123,-1.899 4.198,-3.85 6.219,-5.853c2.712,-2.686 5.203,-6.212 7.968,-9.245c1.198,-1.323 2.101,-2.926 3.016,-4.43c0.438,-0.717 1.17,-1.71 2.187,-2.975c0.709,-0.882 2.559,-3.212 2.074,-4.313c-0.066,-0.15 -0.063,-0.298 0.005,-0.449c1.007,-2.222 2.096,-4.411 3.261,-6.568c1.575,-2.926 2.006,-6.809 2.901,-10.022c0.568,-2.042 0.739,-4.272 1.302,-6.441c0.056,-0.207 0.138,-0.217 0.245,-0.034l0.074,0.128c0.145,0.244 0.216,0.221 0.208,-0.064c-0.05,-2.526 -0.43,-5.001 -1.139,-7.425c-1.544,-5.295 -3.328,-10.507 -5.355,-15.635c-0.982,-2.494 -2.325,-4.856 -3.587,-7.275c-0.835,-1.598 -2.207,-2.437 -2.594,-4.522c-0.028,-0.164 -0.12,-0.28 -0.273,-0.352c-1.004,-0.454 -3.283,-5.416 -3.846,-6.597c-1.815,-3.831 -4.92,-7.302 -7.24,-10.884c-1.916,-2.967 -3.797,-5.378 -5.857,-7.996c-1.856,-2.355 -4.807,-6.721 -7.708,-9.75c-0.268,-0.277 -0.632,-0.97 -1.091,-2.084c-0.066,-0.154 -0.176,-0.263 -0.328,-0.329c-0.635,-0.27 -1.158,-0.839 -1.566,-1.708c-0.416,-0.869 -1.555,-2.325 -3.42,-4.359c-0.07,-0.076 -0.156,-0.112 -0.256,-0.109l-0.471,0.025c-0.171,0.01 -0.316,-0.048 -0.433,-0.171c-0.191,-0.196 -0.431,-0.262 -0.722,-0.196c-0.168,0.035 -0.334,0.018 -0.494,-0.054c-3.811,-1.771 -8.598,-1.149 -12.737,-1.751c-3.665,-0.53 -7.341,0.856 -11.116,0.054c-1.596,-0.339 -2.705,-0.074 -3.067,1.623c-0.005,0.016 -0.015,0.021 -0.035,0.011l-0.182,-0.107c-0.201,-0.123 -0.251,-0.077 -0.147,0.132c0.591,1.208 1.364,2.623 2.322,4.236c3.104,5.234 6.026,9.929 8.758,14.086" style="fill:none;stroke:#0256b3;stroke-width:0.36px;"/><path d="M142.591,79.209c1.573,2.536 3.204,5.032 4.889,7.494c0.25,0.367 0.201,0.673 -0.117,0.948" style="fill:none;stroke:#025ebb;stroke-width:0.36px;"/><path d="M178.725,159.593l0.107,-0.117c0.051,-0.056 0.084,-0.046 0.092,0.028c0.25,2.194 -0.497,3.79 0.431,5.988c0.158,0.366 0.232,0.762 0.227,1.182c-0.008,0.431 0.481,0.683 0.825,0.425c0.676,-0.489 1.02,-1.126 1.033,-1.911c0,-0.14 0.071,-0.212 0.216,-0.212l0.342,0c0.199,0 0.27,0.097 0.217,0.289c-0.135,0.486 -0.138,0.968 -0.011,1.45c0.049,0.181 0.026,0.352 -0.068,0.512l-0.587,0.974c-0.209,0.354 -0.166,0.39 0.131,0.11c0.461,-0.426 0.794,-0.936 1.004,-1.53c0.119,-0.339 0.181,-0.329 0.181,0.031l0,0.611c0,0.243 0.053,0.255 0.16,0.039l1.142,-2.271c0.069,-0.14 0.023,-0.212 -0.132,-0.215c-0.056,0 -0.11,0 -0.161,0c-0.183,0.003 -0.23,-0.074 -0.138,-0.229c1.818,-3.082 3.153,-6.36 4.008,-9.836c0.504,-2.058 1.654,-3.653 1.674,-5.968c0.005,-0.79 0.117,-1.48 0.332,-2.075c1.111,-3.053 1.804,-6.201 2.084,-9.446c0.011,-0.12 0.036,-0.122 0.074,-0.008c0.033,0.095 0.056,0.199 0.069,0.312c0.034,0.239 0.062,0.239 0.084,0c0.286,-2.84 0.426,-5.692 0.415,-8.55c-0.004,-1.18 0.235,-2.847 0.064,-4.239c-0.343,-2.826 0.039,-5.332 -0.636,-8.07c-0.47,-1.891 -0.663,-3.81 -0.582,-5.755c0.102,-2.412 -0.112,-4.125 -0.416,-6.288c-0.02,-0.153 -0.086,-0.281 -0.201,-0.385c-0.163,-0.156 -0.206,-0.327 -0.127,-0.515c0.069,-0.163 0.079,-0.329 0.028,-0.5c-0.24,-0.856 -0.811,-1.252 -1.713,-1.18c-0.204,0.018 -0.357,-0.066 -0.454,-0.247c-0.219,-0.405 -0.558,-0.582 -1.017,-0.525c-0.232,0.03 -0.305,-0.064 -0.217,-0.278l0.539,-1.351c0.066,-0.163 0.066,-0.326 0.004,-0.484l-1.106,-2.932c-0.061,-0.163 -0.163,-0.298 -0.308,-0.402c-1.242,-0.91 -1.942,-2.172 -2.995,-3.261c-0.454,-0.466 -0.854,-0.983 -1.203,-1.554c-0.09,-0.14 -0.207,-0.247 -0.357,-0.324c-1.568,-0.778 -4.655,-3.138 -4.665,-5.07c0,-0.163 -0.084,-0.245 -0.249,-0.245l-0.378,0c-0.204,0 -0.39,-0.064 -0.553,-0.191l-1.56,-1.229c-0.227,-0.178 -0.352,-0.124 -0.377,0.164c-0.011,0.081 0.01,0.163 0.058,0.244c0.062,0.097 0.044,0.115 -0.058,0.054l-2.824,-1.733c-0.125,-0.079 -0.202,-0.192 -0.23,-0.337c-0.148,-0.721 -1.756,-1.132 -2.383,-1.376c-0.166,-0.067 -0.281,-0.178 -0.344,-0.342c-0.433,-1.142 -1.272,-1.754 -2.519,-1.83c-0.163,-0.01 -0.29,-0.087 -0.382,-0.227l-0.543,-0.856c-0.099,-0.151 -0.237,-0.214 -0.415,-0.197c-1.685,0.192 -3.209,-0.199 -4.578,-1.167c-0.133,-0.099 -0.285,-0.151 -0.454,-0.153c-2.085,-0.049 -3.92,-0.792 -6.102,-0.734c-0.37,0.01 -0.747,-0.036 -1.132,-0.137c-1.063,-0.278 -1.873,0.099 -2.893,-0.044c-1.585,-0.225 -2.735,-0.181 -4.178,-0.186c-0.176,0 -0.344,-0.036 -0.505,-0.107c-1.118,-0.497 -2.034,-0.25 -2.745,0.744c-0.122,0.164 -0.097,0.303 0.074,0.421c0.26,0.178 0.293,0.372 0.097,0.576c-0.115,0.117 -0.102,0.219 0.039,0.303c0.695,0.428 0.899,1.089 0.611,1.978" style="fill:none;stroke:#0169c7;stroke-width:0.36px;"/><path d="M103.214,40.077c-0.323,0.041 -0.642,0.011 -0.957,-0.094c-0.171,-0.058 -0.322,-0.03 -0.457,0.085l-7.14,5.958c-0.122,0.103 -0.211,0.228 -0.27,0.373l-0.453,1.121" style="fill:none;stroke:#ffede1;stroke-width:0.36px;"/><path d="M93.937,47.52c-22.926,21.583 -39.285,50.414 -43.121,81.945c-0.752,6.168 -0.775,12.336 -0.069,18.505" style="fill:none;stroke:#e49c8b;stroke-width:0.36px;"/><path d="M50.747,147.97c-0.169,0.823 -0.018,1.557 0.449,2.202" style="fill:none;stroke:#ffac82;stroke-width:0.36px;"/><path d="M51.196,150.172l0.181,1.772" style="fill:none;stroke:#e49c8b;stroke-width:0.36px;"/><path d="M51.377,151.944c0.52,1.195 0.086,2.082 -1.3,2.663c-0.765,0.321 -1.342,0.742 -2.085,1.027c-0.151,0.059 -0.278,0.146 -0.383,0.258c-0.52,0.553 -0.803,1.101 -1.376,1.588c-1.356,1.155 -2.804,2.2 -4.341,3.135c-0.14,0.087 -0.209,0.212 -0.204,0.383c0.002,0.357 -0.077,0.662 -0.24,0.92" style="fill:none;stroke:#ffede1;stroke-width:0.36px;"/><path d="M41.448,161.918l-8.653,6.686c-0.219,0.165 -0.191,0.257 0.084,0.272l0.719,0.036" style="fill:none;stroke:#e49c8b;stroke-width:0.36px;"/><path d="M33.598,168.912c0.173,0.099 0.259,0.255 0.259,0.459c0,0.163 0.08,0.262 0.24,0.298c3.069,0.681 7.678,1.01 10.416,-0.851c3.046,-2.073 6.035,-4.219 8.969,-6.444c0.788,-0.604 1.746,-1.776 3.097,-2.355c0.617,-0.27 1.18,-0.818 1.621,-1.277c0.936,-0.979 2.011,-1.494 2.883,-2.629c0.095,-0.124 0.217,-0.206 0.372,-0.244l0.566,-0.148c0.173,-0.045 0.314,-0.14 0.418,-0.283c0.309,-0.428 0.722,-0.688 1.236,-0.782c0.169,-0.031 0.316,-0.097 0.446,-0.201c4.382,-3.442 8.789,-6.85 13.224,-10.224c6.477,-4.922 12.992,-9.799 19.551,-14.629" style="fill:none;stroke:#ffede1;stroke-width:0.36px;"/><path d="M96.896,129.602l20.575,12.5c0.151,0.087 0.224,0.046 0.224,-0.128l-0.076,-9.308c0,-0.153 0.076,-0.225 0.229,-0.214c3.786,0.194 7.602,0.168 11.448,-0.084" style="fill:none;stroke:#fbc081;stroke-width:0.36px;"/><path d="M129.296,132.368c0.862,0.252 1.741,0.278 2.64,0.079c0.138,-0.028 0.263,0.076 0.261,0.214l-0.087,3.441" style="fill:none;stroke:#fed581;stroke-width:0.36px;"/><path d="M132.11,136.102l-0.026,14.463c0,0.193 0.085,0.344 0.255,0.443l3.788,2.243" style="fill:none;stroke:#fbc081;stroke-width:0.36px;"/><path d="M136.127,153.251c8.322,4.981 16.64,9.995 24.949,15.039c0.573,0.349 1.193,0.533 1.856,0.553c3.816,0.117 8.612,-0.479 12.255,0.268c0.145,0.033 0.176,-0.01 0.087,-0.13c-0.268,-0.36 -0.556,-0.633 -0.867,-0.819c-6.958,-4.185 -13.948,-8.383 -20.965,-12.591c-0.217,-0.13 -0.36,-0.355 -0.388,-0.607c-0.249,-2.452 -0.682,-4.947 -1.297,-7.489" style="fill:none;stroke:#fe9d85;stroke-width:0.36px;"/><path d="M151.757,147.475c-1.575,-6.466 -3.963,-12.622 -7.167,-18.469" style="fill:none;stroke:#fbc081;stroke-width:0.36px;"/><path d="M144.59,129.006c-8.919,-17.433 -21.522,-32.173 -31.588,-48.838" style="fill:none;stroke:#fed581;stroke-width:0.36px;"/><path d="M113.002,80.168l-0.999,-1.816" style="fill:none;stroke:#fbc081;stroke-width:0.36px;"/><path d="M112.003,78.352c-1.96,-3.418 -3.389,-7.035 -4.292,-10.845c-0.507,-2.134 -0.336,-4.38 -0.252,-6.62c0.007,-0.239 -0.066,-0.267 -0.227,-0.089c-6.194,7.124 -5.098,15.571 -1.835,23.794" style="fill:none;stroke:#ffac82;stroke-width:0.36px;"/><path d="M105.397,84.592c0.966,2.942 2.462,6.459 2.569,9.22c0.133,3.293 -1.422,8.302 -5.363,8.909" style="fill:none;stroke:#fed581;stroke-width:0.36px;"/><path d="M102.603,102.721c-6.117,-0.403 -9.156,-6.804 -10.42,-11.888" style="fill:none;stroke:#fbc081;stroke-width:0.36px;"/><path d="M92.183,90.833c0.103,-1.767 -0.479,-3.574 -0.553,-5.032c-0.171,-3.451 -0.163,-6.903 0.025,-10.352c0.044,-0.821 0.468,-1.618 0.553,-2.5c0.528,-5.427 2.682,-11.524 4.571,-16.645c0.456,-1.231 1.516,-3.044 1.84,-4.873c0.03,-0.163 -0.038,-0.24 -0.207,-0.23c-0.199,0.013 -0.315,-0.071 -0.356,-0.255" style="fill:none;stroke:#ffede1;stroke-width:0.36px;"/><path d="M98.056,50.946c2.139,-4.519 4.802,-8.702 7.993,-12.554c0.238,-0.29 0.199,-0.331 -0.112,-0.122l-2.723,1.807" style="fill:none;stroke:#e49c8b;stroke-width:0.36px;"/><path d="M98.056,50.946c-0.436,0.645 -0.811,1.328 -1.12,2.047c-2.966,6.821 -4.876,13.925 -5.732,21.307c-0.082,0.711 -0.415,1.718 -0.571,2.462" style="fill:none;stroke:#e48a6d;stroke-width:0.36px;"/><path d="M90.633,76.762c-0.041,-3.795 0.354,-7.547 1.182,-11.256" style="fill:none;stroke:#e3490e;stroke-width:0.36px;"/><path d="M91.815,65.506c1.696,-6.576 3.814,-12.362 7.087,-18.182c0.803,-1.425 1.733,-2.75 2.791,-3.974c0.171,-0.196 0.109,-0.499 -0.122,-0.621c-1.122,-0.587 -4.244,3.117 -5.017,3.705c-0.999,0.758 -2.6,1.619 -3.255,2.879c-0.079,0.144 -0.191,0.254 -0.341,0.326c-0.931,0.451 -1.614,1.154 -2.047,2.11c-0.074,0.169 -0.191,0.304 -0.347,0.4c-0.288,0.176 -0.507,0.413 -0.66,0.706c-0.066,0.131 -0.155,0.242 -0.265,0.332c-1.588,1.358 -3.433,3.255 -5.531,5.687c-7.884,9.168 -14.205,18.441 -19.472,28.953c-7.718,15.401 -13.899,34.327 -13.552,53.164c0.053,2.658 0.425,5.786 0.583,8.707c0.005,0.168 0.089,0.278 0.252,0.321c1.255,0.355 2.141,-1.31 2.861,-1.774c2.217,-1.43 4.032,-3.181 6.191,-4.7c5.602,-3.954 11.019,-8.373 16.448,-12.582" style="fill:none;stroke:#e33a11;stroke-width:0.36px;"/><path d="M77.419,130.963c0.599,-0.606 1.293,-0.918 2.075,-0.935c0.166,-0.003 0.321,-0.043 0.464,-0.123l0.739,-0.41c0.186,-0.102 0.215,-0.069 0.085,0.097l-0.202,0.25" style="fill:none;stroke:#e3490e;stroke-width:0.36px;"/><path d="M80.58,129.842c-7.986,6.349 -16.204,12.329 -24.315,18.505c-1.608,1.221 -3.237,2.419 -4.888,3.597" style="fill:none;stroke:#e48a6d;stroke-width:0.36px;"/><path d="M51.196,150.172c0.051,-0.773 -0.1,-1.507 -0.449,-2.202" style="fill:none;stroke:#e3490e;stroke-width:0.36px;"/><path d="M93.937,47.52l9.277,-7.443" style="fill:none;stroke:#e48a6d;stroke-width:0.36px;"/><path d="M91.489,89.609l0.396,2.771c0.043,0.303 -0.016,0.321 -0.171,0.058c-0.056,-0.094 -0.102,-0.193 -0.137,-0.298c-0.092,-0.273 -0.21,-0.283 -0.352,-0.036c-0.826,1.446 -2.31,3.888 -2.149,4.754c0.033,0.169 0.023,0.337 -0.028,0.502c-1.15,3.694 -1.468,7.451 -0.961,11.272c0.02,0.13 -0.018,0.242 -0.112,0.338c-0.105,0.103 -0.138,0.269 -0.097,0.492c0.249,1.469 0.42,2.399 0.512,2.792c0.013,0.056 -0.008,0.091 -0.064,0.107c-0.04,0.012 -0.087,0.005 -0.13,-0.025c-0.143,-0.098 -0.193,-0.054 -0.158,0.127c0,0.025 0.719,2.594 0.462,2.6c-0.191,0 -0.245,0.086 -0.169,0.26l2.256,4.97c0.043,0.099 0.012,0.148 -0.092,0.148c-0.045,0 -0.096,-0.002 -0.152,-0.005c-0.087,-0.005 -0.113,0.031 -0.077,0.112l1.002,2.291c0.121,0.281 0.036,0.373 -0.255,0.273l-0.884,-0.298c-0.158,-0.051 -0.24,-0.161 -0.245,-0.326c-0.011,-0.37 -0.222,-0.553 -0.638,-0.548c-0.107,0 -0.175,0.049 -0.208,0.15c-0.197,0.597 -0.936,1.399 -0.729,2.022" style="fill:none;stroke:#fa6d04;stroke-width:0.36px;"/><path d="M88.309,124.112l-6.824,5.409c-0.128,0.096 -0.267,0.163 -0.421,0.198l-0.484,0.123" style="fill:none;stroke:#ff9a64;stroke-width:0.36px;"/><path d="M92.183,90.833l-0.694,-1.224" style="fill:none;stroke:#fbad62;stroke-width:0.36px;"/><path d="M91.489,89.609c-0.915,-4.234 -1.2,-8.516 -0.856,-12.847" style="fill:none;stroke:#ff9a64;stroke-width:0.36px;"/><path d="M91.815,65.506l-0.978,-0.112c-0.154,-0.021 -0.301,0 -0.444,0.058c-1.111,0.456 -2.026,1.163 -2.747,2.113c-0.378,0.5 -1.395,1.175 -3.049,2.027c-0.145,0.076 -0.298,0.099 -0.459,0.069c-0.777,-0.138 -1.223,0.186 -1.341,0.969c-0.025,0.16 -0.107,0.282 -0.244,0.366c-0.709,0.441 -1.14,1.053 -1.292,1.836c-0.034,0.173 -0.105,0.326 -0.217,0.461l-1.231,1.486c-0.237,0.285 -0.296,0.253 -0.178,-0.097l0.599,-1.815c0.053,-0.173 0.017,-0.196 -0.113,-0.068c-0.622,0.608 -1.211,1.246 -1.774,1.913c-1.091,1.285 -1.353,3.049 -2.539,4.512c-0.104,0.131 -0.14,0.275 -0.107,0.436c0.082,0.408 0.016,0.775 -0.196,1.101c-3.097,4.767 -4.063,8.833 -5.613,14.29c-0.734,2.569 -0.905,4.884 -1.032,7.458c-0.069,1.376 -0.583,2.304 -1.16,3.485c-0.086,0.173 -0.14,0.165 -0.168,-0.023c-0.046,-0.309 -0.26,-0.467 -0.645,-0.482c-0.13,-0.002 -0.232,0.051 -0.303,0.163c-0.475,0.739 0.214,2.098 -0.23,3.191c-0.056,0.141 -0.068,0.286 -0.04,0.434l0.578,2.717c0.023,0.094 0.069,0.107 0.138,0.038l0.13,-0.135c0.125,-0.123 0.209,-0.1 0.255,0.069c1.205,4.193 3.494,8.088 5.182,12.135c0.068,0.171 0.031,0.306 -0.118,0.411c-0.927,0.658 -0.948,1.402 -0.058,2.237c0.053,0.052 0.081,0.042 0.089,-0.035c0.003,-0.041 0.013,-0.084 0.028,-0.125c0.063,-0.178 0.127,-0.178 0.197,-0.005l0.509,1.341c0.028,0.074 0.074,0.084 0.133,0.028c0.033,-0.034 0.061,-0.064 0.086,-0.097c0.115,-0.13 0.199,-0.115 0.25,0.048l0.079,0.265c0.036,0.105 0.094,0.12 0.176,0.049c0.031,-0.03 0.056,-0.058 0.084,-0.089c0.059,-0.064 0.107,-0.059 0.146,0.015l1.218,2.32c0.081,0.152 0.191,0.175 0.329,0.068l1.016,-0.808c0.118,-0.094 0.202,-0.071 0.25,0.069l0.408,1.17" style="fill:none;stroke:#fe4a08;stroke-width:0.36px;"/><path d="M86.922,127.66l-45.474,34.258" style="fill:none;stroke:#e48a6d;stroke-width:0.36px;"/><path d="M96.896,129.602c-0.342,-0.443 -0.846,-0.594 -1.512,-0.454" style="fill:none;stroke:#fbad62;stroke-width:0.36px;"/><path d="M95.384,129.148c-0.825,-0.622 -1.498,-0.535 -2.021,0.255c-0.092,0.135 -0.209,0.24 -0.352,0.311c-1.802,0.902 -2.977,2.238 -4.723,3.202c-1.478,0.818 -2.633,2.335 -3.754,3.137c-1.273,0.916 -2.542,1.831 -3.811,2.741" style="fill:none;stroke:#df5d0d;stroke-width:0.36px;"/><path d="M80.723,138.794l-2.388,-3.347" style="fill:none;stroke:#fa5d06;stroke-width:0.36px;"/><path d="M78.335,135.447c0.489,-0.461 0.943,-1.015 1.57,-1.357c2.34,-1.284 4.435,-2.908 6.288,-4.866c0.181,-0.188 0.423,-0.71 0.729,-1.564" style="fill:none;stroke:#df5d0d;stroke-width:0.36px;"/><path d="M86.922,127.66l3.021,-2.389c0.137,-0.104 0.14,-0.214 0.009,-0.328c-0.473,-0.421 -1.022,-0.699 -1.643,-0.831" style="fill:none;stroke:#fbad62;stroke-width:0.36px;"/><path d="M78.335,135.447c-1.015,0.772 -1.991,1.537 -2.927,2.288c-2.839,2.297 -5.888,4.021 -8.621,6.549c-1.075,0.994 -2.405,1.387 -3.611,2.314c-1.604,1.242 -2.425,1.874 -2.46,1.9c-2.809,1.904 -5.722,4.376 -8.128,6.109c-3.077,2.218 -6.144,4.453 -9.197,6.704c-0.92,0.68 -1.665,1.596 -2.511,2.213c-1.912,1.401 -3.826,2.768 -5.746,4.096c-0.244,0.163 -0.116,0.545 0.177,0.527c2.548,-0.127 6.813,0.426 8.839,-1.06c1.252,-0.913 3.322,-3.367 5.358,-3.984c0.163,-0.051 0.293,-0.145 0.393,-0.291c0.629,-0.915 1.463,-1.578 2.505,-1.98c0.176,-0.069 0.317,-0.181 0.426,-0.334c0.349,-0.487 0.818,-0.798 1.41,-0.935c0.147,-0.031 0.27,-0.107 0.367,-0.23c1.667,-2.118 4.285,-3.263 6.273,-5.113c0.675,-0.633 1.639,-0.813 2.164,-1.797c0.076,-0.145 0.186,-0.26 0.326,-0.342c2.58,-1.493 4.307,-3.749 6.612,-5.304c3.694,-2.503 7.272,-5.164 10.739,-7.983" style="fill:none;stroke:#e33a11;stroke-width:0.36px;"/><path d="M95.384,129.148l-52.105,39.542c-0.161,0.122 -0.342,0.181 -0.543,0.181l-8.924,-0.068c-0.038,0 -0.077,0.012 -0.113,0.035l-0.101,0.074" style="fill:none;stroke:#e48a6d;stroke-width:0.36px;"/><path d="M144.59,129.006c-0.235,-0.072 -0.456,-0.092 -0.663,-0.059c-0.141,0.02 -0.199,0.099 -0.176,0.24c0.066,0.362 -0.041,0.657 -0.322,0.886c-0.086,0.067 -0.099,0.149 -0.045,0.245c0.91,1.527 -5.103,2.475 -5.384,2.46c-1.085,-0.061 -1.94,0.063 -2.564,0.377c-0.038,0.021 -0.056,0.049 -0.054,0.085c0.003,0.035 0.016,0.073 0.036,0.116c0.018,0.034 0.011,0.056 -0.025,0.075c-0.852,0.4 -1.728,0.616 -2.633,0.65c-0.153,0.007 -0.245,0.084 -0.273,0.234l-0.377,1.787" style="fill:none;stroke:#f99603;stroke-width:0.36px;"/><path d="M129.296,132.368c-3.574,-0.355 -7.153,-0.464 -10.739,-0.329c-0.015,0 -0.023,-0.005 -0.023,-0.018l-0.025,-0.171c-0.011,-0.064 -0.046,-0.097 -0.107,-0.104c-0.638,-0.064 -1.056,-0.411 -1.26,-1.038c-0.048,-0.153 -0.14,-0.272 -0.278,-0.357l-1.419,-0.851c-0.026,-0.013 -0.046,-0.013 -0.059,0c-0.028,0.025 -0.059,0.056 -0.089,0.087c-0.112,0.114 -0.235,0.127 -0.367,0.036c-1.066,-0.75 -3.885,-3.261 -4.971,-3.426c-0.17,-0.026 -0.313,-0.1 -0.431,-0.22l-2.128,-2.154c-0.035,-0.04 -0.028,-0.058 0.023,-0.058l0.186,0c0.082,0 0.105,-0.038 0.069,-0.113c-0.268,-0.509 -0.668,-0.861 -1.198,-1.057c-0.176,-0.066 -0.308,-0.181 -0.392,-0.349c-0.256,-0.498 -0.671,-0.77 -1.249,-0.811c-0.205,-0.013 -0.363,-0.107 -0.47,-0.286l-0.802,-1.305c-0.118,-0.188 -0.278,-0.234 -0.48,-0.137l-0.155,0.079c-0.135,0.064 -0.24,0.033 -0.314,-0.1l-0.754,-1.335c-0.092,-0.156 -0.046,-0.235 0.137,-0.235l0.332,0c0.135,0 0.168,-0.058 0.104,-0.176l-2.276,-4.139c-0.076,-0.137 -0.036,-0.209 0.122,-0.212c0.044,0 0.09,0.003 0.143,0.005c0.155,0.011 0.199,-0.056 0.13,-0.201c-0.846,-1.705 -1.453,-3.492 -1.815,-5.358c-0.005,-0.025 -0.023,-0.03 -0.048,-0.01c-0.013,0.01 -0.025,0.02 -0.038,0.028c-0.051,0.033 -0.094,0.023 -0.133,-0.028c-0.303,-0.416 -0.321,-0.78 -0.053,-1.096c0.094,-0.114 0.157,-0.242 0.188,-0.382l0.179,-0.803c0.03,-0.153 0.125,-0.229 0.277,-0.229c0.151,0 0.298,0 0.441,0c0.036,0 0.039,0.007 0.006,0.02c-0.087,0.025 -0.113,0.071 -0.085,0.14c0.039,0.079 0.085,0.082 0.138,0.01l0.808,-1.066c0.107,-0.139 0.181,-0.124 0.219,0.049c0.023,0.12 -0.005,0.209 -0.087,0.265c-0.509,0.352 -0.438,0.464 0.214,0.336c0.121,-0.023 0.215,0.008 0.278,0.092c0.314,0.408 0.391,0.337 0.228,-0.214c-0.125,-0.423 -0.023,-0.731 0.303,-0.92c0.138,-0.081 0.196,-0.201 0.181,-0.362l-0.064,-0.645c-0.02,-0.191 0.064,-0.306 0.25,-0.349l0.66,-0.15" style="fill:none;stroke:#f99603;stroke-width:0.36px;"/><path d="M112.003,78.352l-0.649,-0.356c-0.141,-0.077 -0.243,-0.184 -0.309,-0.329c-1.233,-2.628 -2.712,-4.986 -3.426,-7.772c-0.474,-1.832 -0.91,-3.65 -1.312,-5.452c-0.069,-0.326 -0.508,-0.388 -0.666,-0.092c-0.843,1.548 -1.496,3.161 -1.952,4.846c-1.15,4.272 0.303,9.752 1.83,13.805" style="fill:none;stroke:#fa6d04;stroke-width:0.36px;"/><path d="M105.519,83.002c0.163,0.558 0.122,1.088 -0.122,1.59" style="fill:none;stroke:#fd8204;stroke-width:0.36px;"/><path d="M113.002,80.168c-0.44,0.043 -0.771,-0.077 -0.993,-0.357c-0.1,-0.128 -0.204,-0.128 -0.314,-0.005c-0.767,0.882 -3.16,3.035 -4.496,2.632c-0.14,-0.04 -0.278,-0.035 -0.411,0.021l-1.269,0.543" style="fill:none;stroke:#f99603;stroke-width:0.36px;"/><path d="M151.757,147.475c-0.262,1.114 -0.217,2.197 0.143,3.255c0.548,1.611 0.42,2.394 -0.074,3.847c-0.053,0.171 -0.171,0.275 -0.347,0.313l-1.804,0.39c-0.151,0.033 -0.27,0.11 -0.36,0.232c-0.425,0.597 -0.961,1.101 -1.603,1.517c-0.123,0.079 -0.255,0.117 -0.397,0.117l-0.513,0c-0.145,0 -0.255,0.061 -0.334,0.181c-0.216,0.329 -0.515,0.543 -0.894,0.642c-0.162,0.041 -0.314,0.018 -0.457,-0.068c-2.452,-1.532 -6.181,-4.235 -8.99,-4.65" style="fill:none;stroke:#fa5d06;stroke-width:0.36px;"/><path d="M79.214,162.407l-18.733,14.129c-0.267,0.201 -0.321,0.451 -0.158,0.744c9.516,17.129 26.247,27.662 46.073,27.603" style="fill:none;stroke:#81a5d3;stroke-width:0.36px;"/><path d="M106.396,204.883c0.777,0.332 1.588,0.441 2.432,0.326c0.163,-0.022 0.321,0 0.471,0.064c0.691,0.308 1.313,0.451 1.869,0.431c13.42,-0.517 27.103,-7.295 34.895,-18.312c0.606,-0.861 2.788,-4.484 2.156,-5.409" style="fill:none;stroke:#e8f1fa;stroke-width:0.36px;"/><path d="M148.219,181.983c-0.025,-0.416 -0.357,-0.81 -0.991,-1.19c-17.101,-10.272 -34.195,-20.552 -51.285,-30.835c-0.141,-0.087 -0.276,-0.079 -0.406,0.018l-16.323,12.431" style="fill:none;stroke:#80b0df;stroke-width:0.36px;"/><path d="M148.219,181.983l-0.367,0.612" style="fill:none;stroke:#69a2da;stroke-width:0.36px;"/><path d="M147.852,182.595c-0.494,-0.166 -0.856,-0.081 -1.081,0.255c-3.211,4.853 -6.931,9.602 -11.666,12.518c-1.104,0.678 -2.202,1.373 -3.293,2.085c-0.191,0.12 -0.317,0.073 -0.377,-0.143c-0.095,-0.332 -0.276,-0.377 -0.539,-0.135c-0.074,0.064 -0.114,0.051 -0.127,-0.046l-0.031,-0.219c-0.02,-0.133 -0.096,-0.199 -0.234,-0.197c-2.432,0.085 -4.576,-1.256 -7.357,-1.33c-3.879,-0.097 -7.728,-0.696 -11.613,-0.905c-0.338,-0.02 -0.808,-0.148 -1.404,-0.387c-0.161,-0.061 -0.318,-0.061 -0.474,0c-0.8,0.316 -1.542,0.183 -2.227,-0.396c-0.108,-0.091 -0.233,-0.127 -0.373,-0.109c-1.937,0.255 -3.347,-2.161 -1.804,-3.176c0.537,-0.357 1.123,-0.166 1.756,-0.332" style="fill:none;stroke:#0256b3;stroke-width:0.36px;"/><path d="M107.008,190.078l2.059,-0.053c0.196,-0.005 0.296,-0.104 0.296,-0.301l-0.051,-8.964" style="fill:none;stroke:#80b0df;stroke-width:0.36px;"/><path d="M109.312,180.76c0.474,-0.827 0.479,-1.647 0.021,-2.468" style="fill:none;stroke:#0256b3;stroke-width:0.36px;"/><path d="M109.333,178.292l0.096,-9.023c0,-0.148 -0.117,-0.27 -0.262,-0.27l-8.991,-0.005" style="fill:none;stroke:#80b0df;stroke-width:0.36px;"/><path d="M100.176,168.994l-2.452,0.137" style="fill:none;stroke:#0256b3;stroke-width:0.36px;"/><path d="M97.724,169.131l-9.064,-0.092c-0.163,0 -0.244,0.079 -0.244,0.24l-0.006,2.666" style="fill:none;stroke:#80b0df;stroke-width:0.36px;"/><path d="M88.41,171.945c-1.363,-0.033 -2.717,-0.074 -4.063,-0.127c-1.218,-0.048 -2.181,0.665 -3.601,-0.011c-0.039,-0.017 -0.044,-0.043 -0.013,-0.071c0.028,-0.03 0.058,-0.061 0.092,-0.094c0.092,-0.092 0.073,-0.15 -0.054,-0.176c-2.187,-0.464 -3.617,-1.728 -4.292,-3.798c-0.044,-0.133 -0.048,-0.27 -0.02,-0.405l0.484,-2.105c0.033,-0.141 0.115,-0.248 0.242,-0.319c1.009,-0.551 1.687,-1.361 2.029,-2.432" style="fill:none;stroke:#0256b3;stroke-width:0.36px;"/><path d="M88.41,171.945l0.006,6.123c0,0.163 0.081,0.245 0.244,0.245l8.677,0c0.163,0 0.245,-0.082 0.245,-0.245l0.142,-8.937" style="fill:none;stroke:#81a5d3;stroke-width:0.36px;"/><path d="M100.176,168.994l-0.005,8.956c0,0.197 0.097,0.294 0.294,0.294l8.868,0.048" style="fill:none;stroke:#81a5d3;stroke-width:0.36px;"/><path d="M109.312,180.76c-2.962,0.176 -5.934,0.183 -8.916,0.025c-0.161,-0.01 -0.24,0.067 -0.24,0.23l0,8.697c0,0.203 0.102,0.308 0.309,0.308l6.543,0.058" style="fill:none;stroke:#81a5d3;stroke-width:0.36px;"/><path d="M147.852,182.595c-8.269,15.029 -24.796,22.193 -41.456,22.288" style="fill:none;stroke:#6a97cd;stroke-width:0.36px;"/><path d="M97.704,180.966c0.002,-0.069 -0.056,-0.127 -0.125,-0.127l-9.026,-0.031c-0.069,0 -0.128,0.056 -0.128,0.128l-0.03,8.895c0,0.072 0.057,0.128 0.128,0.128l9.023,0.033c0.071,0 0.127,-0.058 0.127,-0.128l0.031,-8.898Z" style="fill:none;stroke:#81a5d3;stroke-width:0.36px;"/><path d="M206.58,159.838c-4.614,34.826 -33.067,58.532 -66.915,62.541c-2.078,0.247 -4.155,0.492 -6.23,0.734c-18.842,0.63 -36.185,-4.048 -52.031,-14.032c-0.729,-0.459 -0.709,-0.494 0.058,-0.102c33.137,16.826 73.634,8.48 91.268,-26.017c0.321,0.665 0.27,1.358 -0.158,2.08c-2.095,3.543 -4.106,6.673 -6.038,9.39c-0.115,0.161 -0.135,0.332 -0.059,0.51l0.318,0.77c0.051,0.12 0.141,0.168 0.268,0.14c0.788,-0.153 1.463,-0.52 2.027,-1.101c0.981,-1.014 2.115,-1.807 3.397,-2.378c1.165,-0.518 1.912,-1.474 3.082,-2.055c0.069,-0.035 0.1,-0.018 0.089,0.059c-0.008,0.051 -0.025,0.097 -0.053,0.132c-0.337,0.436 -0.299,0.472 0.112,0.103c2.123,-1.899 4.198,-3.85 6.219,-5.853c2.712,-2.686 5.203,-6.212 7.968,-9.245c1.198,-1.323 2.101,-2.926 3.016,-4.43c0.438,-0.717 1.17,-1.71 2.187,-2.975c0.709,-0.882 2.559,-3.212 2.074,-4.313c-0.066,-0.15 -0.063,-0.298 0.005,-0.449c1.007,-2.222 2.096,-4.411 3.261,-6.568c1.575,-2.926 2.006,-6.809 2.901,-10.022c0.568,-2.042 0.739,-4.272 1.302,-6.441c0.056,-0.207 0.138,-0.217 0.245,-0.034l0.074,0.128c0.145,0.244 0.216,0.221 0.208,-0.064c-0.05,-2.526 -0.43,-5.001 -1.139,-7.425c-1.544,-5.295 -3.328,-10.507 -5.355,-15.635c-0.982,-2.494 -2.325,-4.856 -3.587,-7.275c-0.835,-1.598 -2.207,-2.437 -2.594,-4.522c-0.028,-0.164 -0.12,-0.28 -0.273,-0.352c-1.004,-0.454 -3.283,-5.416 -3.846,-6.597c-1.815,-3.831 -4.92,-7.302 -7.24,-10.884c-1.916,-2.967 -3.797,-5.378 -5.857,-7.996c-1.856,-2.355 -4.807,-6.721 -7.708,-9.75c-0.268,-0.277 -0.632,-0.97 -1.091,-2.084c-0.066,-0.154 -0.176,-0.263 -0.328,-0.329c-0.635,-0.27 -1.158,-0.839 -1.566,-1.708c-0.416,-0.869 -1.555,-2.325 -3.42,-4.359c-0.07,-0.076 -0.156,-0.112 -0.256,-0.109l-0.471,0.025c-0.171,0.01 -0.316,-0.048 -0.433,-0.171c-0.191,-0.196 -0.431,-0.262 -0.722,-0.196c-0.168,0.035 -0.334,0.018 -0.494,-0.054c-3.811,-1.771 -8.598,-1.149 -12.737,-1.751c-3.665,-0.53 -7.341,0.856 -11.116,0.054c-1.596,-0.339 -2.705,-0.074 -3.067,1.623c-0.005,0.016 -0.015,0.021 -0.035,0.011l-0.182,-0.107c-0.201,-0.123 -0.251,-0.077 -0.147,0.132c0.591,1.208 1.364,2.623 2.322,4.236c3.104,5.234 6.026,9.929 8.758,14.086c1.573,2.536 3.204,5.032 4.889,7.494c0.25,0.367 0.201,0.673 -0.117,0.948c-5.483,-7.631 -10.377,-15.133 -14.677,-22.502c-8.448,-14.48 -14.976,-31.688 -5.379,-47.497c3.959,-6.518 8.927,-12.376 14.904,-17.57c0.146,-0.13 0.182,-0.105 0.102,0.074c-1.904,4.435 -3.089,8.315 -3.334,12.895c-0.856,16.171 10.978,32.517 20.4,44.624c23.103,29.688 51.659,61.219 47.201,102.163Z" style="fill:#034ba6;fill-rule:nonzero;"/><path d="M98.056,50.946c-0.436,0.645 -0.811,1.328 -1.12,2.047c-2.966,6.821 -4.876,13.925 -5.732,21.307c-0.082,0.711 -0.415,1.718 -0.571,2.462c-0.041,-3.795 0.354,-7.547 1.182,-11.256c1.696,-6.576 3.814,-12.362 7.087,-18.182c0.803,-1.425 1.733,-2.75 2.791,-3.974c0.171,-0.196 0.109,-0.499 -0.122,-0.621c-1.122,-0.587 -4.244,3.117 -5.017,3.705c-0.999,0.758 -2.6,1.619 -3.255,2.879c-0.079,0.144 -0.191,0.254 -0.341,0.326c-0.931,0.451 -1.614,1.154 -2.047,2.11c-0.074,0.169 -0.191,0.304 -0.347,0.4c-0.288,0.176 -0.507,0.413 -0.66,0.706c-0.066,0.131 -0.155,0.242 -0.265,0.332c-1.588,1.358 -3.433,3.255 -5.531,5.687c-7.884,9.168 -14.205,18.441 -19.472,28.953c-7.718,15.401 -13.899,34.327 -13.552,53.164c0.053,2.658 0.425,5.786 0.583,8.707c0.005,0.168 0.089,0.278 0.252,0.321c1.255,0.355 2.141,-1.31 2.861,-1.774c2.217,-1.43 4.032,-3.181 6.191,-4.7c5.602,-3.954 11.019,-8.373 16.448,-12.582c0.599,-0.606 1.293,-0.918 2.075,-0.935c0.166,-0.003 0.321,-0.043 0.464,-0.123l0.739,-0.41c0.186,-0.102 0.215,-0.069 0.085,0.097l-0.202,0.25c-7.986,6.349 -16.204,12.329 -24.315,18.505c-1.608,1.221 -3.237,2.419 -4.888,3.597l-0.181,-1.772c0.051,-0.773 -0.1,-1.507 -0.449,-2.202c-0.706,-6.169 -0.683,-12.337 0.069,-18.505c3.836,-31.531 20.195,-60.362 43.121,-81.945l9.277,-7.443l2.723,-1.807c0.311,-0.209 0.35,-0.168 0.112,0.122c-3.191,3.852 -5.854,8.035 -7.993,12.554Z" style="fill:#c83917;fill-rule:nonzero;"/><path d="M103.214,40.077l-9.277,7.443l0.453,-1.121c0.059,-0.145 0.148,-0.27 0.27,-0.373l7.14,-5.958c0.135,-0.115 0.286,-0.143 0.457,-0.085c0.315,0.105 0.634,0.135 0.957,0.094Z" style="fill:#ffdac2;fill-rule:nonzero;"/><path d="M91.815,65.506l-0.978,-0.112c-0.154,-0.021 -0.301,0 -0.444,0.058c-1.111,0.456 -2.026,1.163 -2.747,2.113c-0.378,0.5 -1.395,1.175 -3.049,2.027c-0.145,0.076 -0.298,0.099 -0.459,0.069c-0.777,-0.138 -1.223,0.186 -1.341,0.969c-0.025,0.16 -0.107,0.282 -0.244,0.366c-0.709,0.441 -1.14,1.053 -1.292,1.836c-0.034,0.173 -0.105,0.326 -0.217,0.461l-1.231,1.486c-0.237,0.285 -0.296,0.253 -0.178,-0.097l0.599,-1.815c0.053,-0.173 0.017,-0.196 -0.113,-0.068c-0.622,0.608 -1.211,1.246 -1.774,1.913c-1.091,1.285 -1.353,3.049 -2.539,4.512c-0.104,0.131 -0.14,0.275 -0.107,0.436c0.082,0.408 0.016,0.775 -0.196,1.101c-3.097,4.767 -4.063,8.833 -5.613,14.29c-0.734,2.569 -0.905,4.884 -1.032,7.458c-0.069,1.376 -0.583,2.304 -1.16,3.485c-0.086,0.173 -0.14,0.165 -0.168,-0.023c-0.046,-0.309 -0.26,-0.467 -0.645,-0.482c-0.13,-0.002 -0.232,0.051 -0.303,0.163c-0.475,0.739 0.214,2.098 -0.23,3.191c-0.056,0.141 -0.068,0.286 -0.04,0.434l0.578,2.717c0.023,0.094 0.069,0.107 0.138,0.038l0.13,-0.135c0.125,-0.123 0.209,-0.1 0.255,0.069c1.205,4.193 3.494,8.088 5.182,12.135c0.068,0.171 0.031,0.306 -0.118,0.411c-0.927,0.658 -0.948,1.402 -0.058,2.237c0.053,0.052 0.081,0.042 0.089,-0.035c0.003,-0.041 0.013,-0.084 0.028,-0.125c0.063,-0.178 0.127,-0.178 0.197,-0.005l0.509,1.341c0.028,0.074 0.074,0.084 0.133,0.028c0.033,-0.034 0.061,-0.064 0.086,-0.097c0.115,-0.13 0.199,-0.115 0.25,0.048l0.079,0.265c0.036,0.105 0.094,0.12 0.176,0.049c0.031,-0.03 0.056,-0.058 0.084,-0.089c0.059,-0.064 0.107,-0.059 0.146,0.015l1.218,2.32c0.081,0.152 0.191,0.175 0.329,0.068l1.016,-0.808c0.118,-0.094 0.202,-0.071 0.25,0.069l0.408,1.17c-5.429,4.209 -10.846,8.628 -16.448,12.582c-2.159,1.519 -3.974,3.27 -6.191,4.7c-0.72,0.464 -1.606,2.129 -2.861,1.774c-0.163,-0.043 -0.247,-0.153 -0.252,-0.321c-0.158,-2.921 -0.53,-6.049 -0.583,-8.707c-0.347,-18.837 5.834,-37.763 13.552,-53.164c5.267,-10.512 11.588,-19.785 19.472,-28.953c2.098,-2.432 3.943,-4.329 5.531,-5.687c0.11,-0.09 0.199,-0.201 0.265,-0.332c0.153,-0.293 0.372,-0.53 0.66,-0.706c0.156,-0.096 0.273,-0.231 0.347,-0.4c0.433,-0.956 1.116,-1.659 2.047,-2.11c0.15,-0.072 0.262,-0.182 0.341,-0.326c0.655,-1.26 2.256,-2.121 3.255,-2.879c0.773,-0.588 3.895,-4.292 5.017,-3.705c0.231,0.122 0.293,0.425 0.122,0.621c-1.058,1.224 -1.988,2.549 -2.791,3.974c-3.273,5.82 -5.391,11.606 -7.087,18.182Z" style="fill:#fd3a0a;fill-rule:nonzero;"/><path d="M98.056,50.946c0.041,0.184 0.157,0.268 0.356,0.255c0.169,-0.01 0.237,0.067 0.207,0.23c-0.324,1.829 -1.384,3.642 -1.84,4.873c-1.889,5.121 -4.043,11.218 -4.571,16.645c-0.085,0.882 -0.509,1.679 -0.553,2.5c-0.188,3.449 -0.196,6.901 -0.025,10.352c0.074,1.458 0.656,3.265 0.553,5.032l-0.694,-1.224c-0.915,-4.234 -1.2,-8.516 -0.856,-12.847c0.156,-0.744 0.489,-1.751 0.571,-2.462c0.856,-7.382 2.766,-14.486 5.732,-21.307c0.309,-0.719 0.684,-1.402 1.12,-2.047Z" style="fill:#ffdac2;fill-rule:nonzero;"/><path d="M172.73,182.962c3.497,-7.397 5.496,-15.187 5.995,-23.369l0.107,-0.117c0.051,-0.056 0.084,-0.046 0.092,0.028c0.25,2.194 -0.497,3.79 0.431,5.988c0.158,0.366 0.232,0.762 0.227,1.182c-0.008,0.431 0.481,0.683 0.825,0.425c0.676,-0.489 1.02,-1.126 1.033,-1.911c0,-0.14 0.071,-0.212 0.216,-0.212l0.342,0c0.199,0 0.27,0.097 0.217,0.289c-0.135,0.486 -0.138,0.968 -0.011,1.45c0.049,0.181 0.026,0.352 -0.068,0.512l-0.587,0.974c-0.209,0.354 -0.166,0.39 0.131,0.11c0.461,-0.426 0.794,-0.936 1.004,-1.53c0.119,-0.339 0.181,-0.329 0.181,0.031l0,0.611c0,0.243 0.053,0.255 0.16,0.039l1.142,-2.271c0.069,-0.14 0.023,-0.212 -0.132,-0.215c-0.056,0 -0.11,0 -0.161,0c-0.183,0.003 -0.23,-0.074 -0.138,-0.229c1.818,-3.082 3.153,-6.36 4.008,-9.836c0.504,-2.058 1.654,-3.653 1.674,-5.968c0.005,-0.79 0.117,-1.48 0.332,-2.075c1.111,-3.053 1.804,-6.201 2.084,-9.446c0.011,-0.12 0.036,-0.122 0.074,-0.008c0.033,0.095 0.056,0.199 0.069,0.312c0.034,0.239 0.062,0.239 0.084,0c0.286,-2.84 0.426,-5.692 0.415,-8.55c-0.004,-1.18 0.235,-2.847 0.064,-4.239c-0.343,-2.826 0.039,-5.332 -0.636,-8.07c-0.47,-1.891 -0.663,-3.81 -0.582,-5.755c0.102,-2.412 -0.112,-4.125 -0.416,-6.288c-0.02,-0.153 -0.086,-0.281 -0.201,-0.385c-0.163,-0.156 -0.206,-0.327 -0.127,-0.515c0.069,-0.163 0.079,-0.329 0.028,-0.5c-0.24,-0.856 -0.811,-1.252 -1.713,-1.18c-0.204,0.018 -0.357,-0.066 -0.454,-0.247c-0.219,-0.405 -0.558,-0.582 -1.017,-0.525c-0.232,0.03 -0.305,-0.064 -0.217,-0.278l0.539,-1.351c0.066,-0.163 0.066,-0.326 0.004,-0.484l-1.106,-2.932c-0.061,-0.163 -0.163,-0.298 -0.308,-0.402c-1.242,-0.91 -1.942,-2.172 -2.995,-3.261c-0.454,-0.466 -0.854,-0.983 -1.203,-1.554c-0.09,-0.14 -0.207,-0.247 -0.357,-0.324c-1.568,-0.778 -4.655,-3.138 -4.665,-5.07c0,-0.163 -0.084,-0.245 -0.249,-0.245l-0.378,0c-0.204,0 -0.39,-0.064 -0.553,-0.191l-1.56,-1.229c-0.227,-0.178 -0.352,-0.124 -0.377,0.164c-0.011,0.081 0.01,0.163 0.058,0.244c0.062,0.097 0.044,0.115 -0.058,0.054l-2.824,-1.733c-0.125,-0.079 -0.202,-0.192 -0.23,-0.337c-0.148,-0.721 -1.756,-1.132 -2.383,-1.376c-0.166,-0.067 -0.281,-0.178 -0.344,-0.342c-0.433,-1.142 -1.272,-1.754 -2.519,-1.83c-0.163,-0.01 -0.29,-0.087 -0.382,-0.227l-0.543,-0.856c-0.099,-0.151 -0.237,-0.214 -0.415,-0.197c-1.685,0.192 -3.209,-0.199 -4.578,-1.167c-0.133,-0.099 -0.285,-0.151 -0.454,-0.153c-2.085,-0.049 -3.92,-0.792 -6.102,-0.734c-0.37,0.01 -0.747,-0.036 -1.132,-0.137c-1.063,-0.278 -1.873,0.099 -2.893,-0.044c-1.585,-0.225 -2.735,-0.181 -4.178,-0.186c-0.176,0 -0.344,-0.036 -0.505,-0.107c-1.118,-0.497 -2.034,-0.25 -2.745,0.744c-0.122,0.164 -0.097,0.303 0.074,0.421c0.26,0.178 0.293,0.372 0.097,0.576c-0.115,0.117 -0.102,0.219 0.039,0.303c0.695,0.428 0.899,1.089 0.611,1.978c-2.732,-4.157 -5.654,-8.852 -8.758,-14.086c-0.958,-1.613 -1.731,-3.028 -2.322,-4.236c-0.104,-0.209 -0.054,-0.255 0.147,-0.132l0.182,0.107c0.02,0.01 0.03,0.005 0.035,-0.011c0.362,-1.697 1.471,-1.962 3.067,-1.623c3.775,0.802 7.451,-0.584 11.116,-0.054c4.139,0.602 8.926,-0.02 12.737,1.751c0.16,0.072 0.326,0.089 0.494,0.054c0.291,-0.066 0.531,0 0.722,0.196c0.117,0.123 0.262,0.181 0.433,0.171l0.471,-0.025c0.1,-0.003 0.186,0.033 0.256,0.109c1.865,2.034 3.004,3.49 3.42,4.359c0.408,0.869 0.931,1.438 1.566,1.708c0.152,0.066 0.262,0.175 0.328,0.329c0.459,1.114 0.823,1.807 1.091,2.084c2.901,3.029 5.852,7.395 7.708,9.75c2.06,2.618 3.941,5.029 5.857,7.996c2.32,3.582 5.425,7.053 7.24,10.884c0.563,1.181 2.842,6.143 3.846,6.597c0.153,0.072 0.245,0.188 0.273,0.352c0.387,2.085 1.759,2.924 2.594,4.522c1.262,2.419 2.605,4.781 3.587,7.275c2.027,5.128 3.811,10.34 5.355,15.635c0.709,2.424 1.089,4.899 1.139,7.425c0.008,0.285 -0.063,0.308 -0.208,0.064l-0.074,-0.128c-0.107,-0.183 -0.189,-0.173 -0.245,0.034c-0.563,2.169 -0.734,4.399 -1.302,6.441c-0.895,3.213 -1.326,7.096 -2.901,10.022c-1.165,2.157 -2.254,4.346 -3.261,6.568c-0.068,0.151 -0.071,0.299 -0.005,0.449c0.485,1.101 -1.365,3.431 -2.074,4.313c-1.017,1.265 -1.749,2.258 -2.187,2.975c-0.915,1.504 -1.818,3.107 -3.016,4.43c-2.765,3.033 -5.256,6.559 -7.968,9.245c-2.021,2.003 -4.096,3.954 -6.219,5.853c-0.411,0.369 -0.449,0.333 -0.112,-0.103c0.028,-0.035 0.045,-0.081 0.053,-0.132c0.011,-0.077 -0.02,-0.094 -0.089,-0.059c-1.17,0.581 -1.917,1.537 -3.082,2.055c-1.282,0.571 -2.416,1.364 -3.397,2.378c-0.564,0.581 -1.239,0.948 -2.027,1.101c-0.127,0.028 -0.217,-0.02 -0.268,-0.14l-0.318,-0.77c-0.076,-0.178 -0.056,-0.349 0.059,-0.51c1.932,-2.717 3.943,-5.847 6.038,-9.39c0.428,-0.722 0.479,-1.415 0.158,-2.08Z" style="fill:#0161bf;fill-rule:nonzero;"/><path d="M112.003,78.352l-0.649,-0.356c-0.141,-0.077 -0.243,-0.184 -0.309,-0.329c-1.233,-2.628 -2.712,-4.986 -3.426,-7.772c-0.474,-1.832 -0.91,-3.65 -1.312,-5.452c-0.069,-0.326 -0.508,-0.388 -0.666,-0.092c-0.843,1.548 -1.496,3.161 -1.952,4.846c-1.15,4.272 0.303,9.752 1.83,13.805c0.163,0.558 0.122,1.088 -0.122,1.59c-3.263,-8.223 -4.359,-16.67 1.835,-23.794c0.161,-0.178 0.234,-0.15 0.227,0.089c-0.084,2.24 -0.255,4.486 0.252,6.62c0.903,3.81 2.332,7.427 4.292,10.845Z" style="fill:#fe5905;fill-rule:nonzero;"/><path d="M112.003,78.352l0.999,1.816c-0.44,0.043 -0.771,-0.077 -0.993,-0.357c-0.1,-0.128 -0.204,-0.128 -0.314,-0.005c-0.767,0.882 -3.16,3.035 -4.496,2.632c-0.14,-0.04 -0.278,-0.035 -0.411,0.021l-1.269,0.543c-1.527,-4.053 -2.98,-9.533 -1.83,-13.805c0.456,-1.685 1.109,-3.298 1.952,-4.846c0.158,-0.296 0.597,-0.234 0.666,0.092c0.402,1.802 0.838,3.62 1.312,5.452c0.714,2.786 2.193,5.144 3.426,7.772c0.066,0.145 0.168,0.252 0.309,0.329l0.649,0.356Z" style="fill:#f68002;fill-rule:nonzero;"/><path d="M91.815,65.506c-0.828,3.709 -1.223,7.461 -1.182,11.256c-0.344,4.331 -0.059,8.613 0.856,12.847l0.396,2.771c0.043,0.303 -0.016,0.321 -0.171,0.058c-0.056,-0.094 -0.102,-0.193 -0.137,-0.298c-0.092,-0.273 -0.21,-0.283 -0.352,-0.036c-0.826,1.446 -2.31,3.888 -2.149,4.754c0.033,0.169 0.023,0.337 -0.028,0.502c-1.15,3.694 -1.468,7.451 -0.961,11.272c0.02,0.13 -0.018,0.242 -0.112,0.338c-0.105,0.103 -0.138,0.269 -0.097,0.492c0.249,1.469 0.42,2.399 0.512,2.792c0.013,0.056 -0.008,0.091 -0.064,0.107c-0.04,0.012 -0.087,0.005 -0.13,-0.025c-0.143,-0.098 -0.193,-0.054 -0.158,0.127c0,0.025 0.719,2.594 0.462,2.6c-0.191,0 -0.245,0.086 -0.169,0.26l2.256,4.97c0.043,0.099 0.012,0.148 -0.092,0.148c-0.045,0 -0.096,-0.002 -0.152,-0.005c-0.087,-0.005 -0.113,0.031 -0.077,0.112l1.002,2.291c0.121,0.281 0.036,0.373 -0.255,0.273l-0.884,-0.298c-0.158,-0.051 -0.24,-0.161 -0.245,-0.326c-0.011,-0.37 -0.222,-0.553 -0.638,-0.548c-0.107,0 -0.175,0.049 -0.208,0.15c-0.197,0.597 -0.936,1.399 -0.729,2.022l-6.824,5.409c-0.128,0.096 -0.267,0.163 -0.421,0.198l-0.484,0.123l0.202,-0.25c0.13,-0.166 0.101,-0.199 -0.085,-0.097l-0.739,0.41c-0.143,0.08 -0.298,0.12 -0.464,0.123c-0.782,0.017 -1.476,0.329 -2.075,0.935l-0.408,-1.17c-0.048,-0.14 -0.132,-0.163 -0.25,-0.069l-1.016,0.808c-0.138,0.107 -0.248,0.084 -0.329,-0.068l-1.218,-2.32c-0.039,-0.074 -0.087,-0.079 -0.146,-0.015c-0.028,0.031 -0.053,0.059 -0.084,0.089c-0.082,0.071 -0.14,0.056 -0.176,-0.049l-0.079,-0.265c-0.051,-0.163 -0.135,-0.178 -0.25,-0.048c-0.025,0.033 -0.053,0.063 -0.086,0.097c-0.059,0.056 -0.105,0.046 -0.133,-0.028l-0.509,-1.341c-0.07,-0.173 -0.134,-0.173 -0.197,0.005c-0.015,0.041 -0.025,0.084 -0.028,0.125c-0.008,0.077 -0.036,0.087 -0.089,0.035c-0.89,-0.835 -0.869,-1.579 0.058,-2.237c0.149,-0.105 0.186,-0.24 0.118,-0.411c-1.688,-4.047 -3.977,-7.942 -5.182,-12.135c-0.046,-0.169 -0.13,-0.192 -0.255,-0.069l-0.13,0.135c-0.069,0.069 -0.115,0.056 -0.138,-0.038l-0.578,-2.717c-0.028,-0.148 -0.016,-0.293 0.04,-0.434c0.444,-1.093 -0.245,-2.452 0.23,-3.191c0.071,-0.112 0.173,-0.165 0.303,-0.163c0.385,0.015 0.599,0.173 0.645,0.482c0.028,0.188 0.082,0.196 0.168,0.023c0.577,-1.181 1.091,-2.109 1.16,-3.485c0.127,-2.574 0.298,-4.889 1.032,-7.458c1.55,-5.457 2.516,-9.523 5.613,-14.29c0.212,-0.326 0.278,-0.693 0.196,-1.101c-0.033,-0.161 0.003,-0.305 0.107,-0.436c1.186,-1.463 1.448,-3.227 2.539,-4.512c0.563,-0.667 1.152,-1.305 1.774,-1.913c0.13,-0.128 0.166,-0.105 0.113,0.068l-0.599,1.815c-0.118,0.35 -0.059,0.382 0.178,0.097l1.231,-1.486c0.112,-0.135 0.183,-0.288 0.217,-0.461c0.152,-0.783 0.583,-1.395 1.292,-1.836c0.137,-0.084 0.219,-0.206 0.244,-0.366c0.118,-0.783 0.564,-1.107 1.341,-0.969c0.161,0.03 0.314,0.007 0.459,-0.069c1.654,-0.852 2.671,-1.527 3.049,-2.027c0.721,-0.95 1.636,-1.657 2.747,-2.113c0.143,-0.058 0.29,-0.079 0.444,-0.058l0.978,0.112Z" style="fill:#fe5905;fill-rule:nonzero;"/><path d="M178.725,159.593c1.496,-26.086 -16.347,-50.074 -31.362,-71.942c0.318,-0.275 0.367,-0.581 0.117,-0.948c-1.685,-2.462 -3.316,-4.958 -4.889,-7.494c0.288,-0.889 0.084,-1.55 -0.611,-1.978c-0.141,-0.084 -0.154,-0.186 -0.039,-0.303c0.196,-0.204 0.163,-0.398 -0.097,-0.576c-0.171,-0.118 -0.196,-0.257 -0.074,-0.421c0.711,-0.994 1.627,-1.241 2.745,-0.744c0.161,0.071 0.329,0.107 0.505,0.107c1.443,0.005 2.593,-0.039 4.178,0.186c1.02,0.143 1.83,-0.234 2.893,0.044c0.385,0.101 0.762,0.147 1.132,0.137c2.182,-0.058 4.017,0.685 6.102,0.734c0.169,0.002 0.321,0.054 0.454,0.153c1.369,0.968 2.893,1.359 4.578,1.167c0.178,-0.017 0.316,0.046 0.415,0.197l0.543,0.856c0.092,0.14 0.219,0.217 0.382,0.227c1.247,0.076 2.086,0.688 2.519,1.83c0.063,0.164 0.178,0.275 0.344,0.342c0.627,0.244 2.235,0.655 2.383,1.376c0.028,0.145 0.105,0.258 0.23,0.337l2.824,1.733c0.102,0.061 0.12,0.043 0.058,-0.054c-0.048,-0.081 -0.069,-0.163 -0.058,-0.244c0.025,-0.288 0.15,-0.342 0.377,-0.164l1.56,1.229c0.163,0.127 0.349,0.191 0.553,0.191l0.378,0c0.165,0 0.249,0.082 0.249,0.245c0.01,1.932 3.097,4.292 4.665,5.07c0.15,0.077 0.267,0.184 0.357,0.324c0.349,0.571 0.749,1.088 1.203,1.554c1.053,1.089 1.753,2.351 2.995,3.261c0.145,0.104 0.247,0.239 0.308,0.402l1.106,2.932c0.062,0.158 0.062,0.321 -0.004,0.484l-0.539,1.351c-0.088,0.214 -0.015,0.308 0.217,0.278c0.459,-0.057 0.798,0.12 1.017,0.525c0.097,0.181 0.25,0.265 0.454,0.247c0.902,-0.072 1.473,0.324 1.713,1.18c0.051,0.171 0.041,0.337 -0.028,0.5c-0.079,0.188 -0.036,0.359 0.127,0.515c0.115,0.104 0.181,0.232 0.201,0.385c0.304,2.163 0.518,3.876 0.416,6.288c-0.081,1.945 0.112,3.864 0.582,5.755c0.675,2.738 0.293,5.244 0.636,8.07c0.171,1.392 -0.068,3.059 -0.064,4.239c0.011,2.858 -0.129,5.71 -0.415,8.55c-0.022,0.239 -0.05,0.239 -0.084,0c-0.013,-0.113 -0.036,-0.217 -0.069,-0.312c-0.038,-0.114 -0.063,-0.112 -0.074,0.008c-0.28,3.245 -0.973,6.393 -2.084,9.446c-0.215,0.595 -0.327,1.285 -0.332,2.075c-0.02,2.315 -1.17,3.91 -1.674,5.968c-0.855,3.476 -2.19,6.754 -4.008,9.836c-0.092,0.155 -0.045,0.232 0.138,0.229c0.051,0 0.105,0 0.161,0c0.155,0.003 0.201,0.075 0.132,0.215l-1.142,2.271c-0.107,0.216 -0.16,0.204 -0.16,-0.039l0,-0.611c0,-0.36 -0.062,-0.37 -0.181,-0.031c-0.21,0.594 -0.543,1.104 -1.004,1.53c-0.297,0.28 -0.34,0.244 -0.131,-0.11l0.587,-0.974c0.094,-0.16 0.117,-0.331 0.068,-0.512c-0.127,-0.482 -0.124,-0.964 0.011,-1.45c0.053,-0.192 -0.018,-0.289 -0.217,-0.289l-0.342,0c-0.145,0 -0.216,0.072 -0.216,0.212c-0.013,0.785 -0.357,1.422 -1.033,1.911c-0.344,0.258 -0.833,0.006 -0.825,-0.425c0.005,-0.42 -0.069,-0.816 -0.227,-1.182c-0.928,-2.198 -0.181,-3.794 -0.431,-5.988c-0.008,-0.074 -0.041,-0.084 -0.092,-0.028l-0.107,0.117Z" style="fill:#0170cf;fill-rule:nonzero;"/><path d="M113.002,80.168c10.066,16.665 22.669,31.405 31.588,48.838c-0.235,-0.072 -0.456,-0.092 -0.663,-0.059c-0.141,0.02 -0.199,0.099 -0.176,0.24c0.066,0.362 -0.041,0.657 -0.322,0.886c-0.086,0.067 -0.099,0.149 -0.045,0.245c0.91,1.527 -5.103,2.475 -5.384,2.46c-1.085,-0.061 -1.94,0.063 -2.564,0.377c-0.038,0.021 -0.056,0.049 -0.054,0.085c0.003,0.035 0.016,0.073 0.036,0.116c0.018,0.034 0.011,0.056 -0.025,0.075c-0.852,0.4 -1.728,0.616 -2.633,0.65c-0.153,0.007 -0.245,0.084 -0.273,0.234l-0.377,1.787l0.087,-3.441c0.002,-0.138 -0.123,-0.242 -0.261,-0.214c-0.899,0.199 -1.778,0.173 -2.64,-0.079c-3.574,-0.355 -7.153,-0.464 -10.739,-0.329c-0.015,0 -0.023,-0.005 -0.023,-0.018l-0.025,-0.171c-0.011,-0.064 -0.046,-0.097 -0.107,-0.104c-0.638,-0.064 -1.056,-0.411 -1.26,-1.038c-0.048,-0.153 -0.14,-0.272 -0.278,-0.357l-1.419,-0.851c-0.026,-0.013 -0.046,-0.013 -0.059,0c-0.028,0.025 -0.059,0.056 -0.089,0.087c-0.112,0.114 -0.235,0.127 -0.367,0.036c-1.066,-0.75 -3.885,-3.261 -4.971,-3.426c-0.17,-0.026 -0.313,-0.1 -0.431,-0.22l-2.128,-2.154c-0.035,-0.04 -0.028,-0.058 0.023,-0.058l0.186,0c0.082,0 0.105,-0.038 0.069,-0.113c-0.268,-0.509 -0.668,-0.861 -1.198,-1.057c-0.176,-0.066 -0.308,-0.181 -0.392,-0.349c-0.256,-0.498 -0.671,-0.77 -1.249,-0.811c-0.205,-0.013 -0.363,-0.107 -0.47,-0.286l-0.802,-1.305c-0.118,-0.188 -0.278,-0.234 -0.48,-0.137l-0.155,0.079c-0.135,0.064 -0.24,0.033 -0.314,-0.1l-0.754,-1.335c-0.092,-0.156 -0.046,-0.235 0.137,-0.235l0.332,0c0.135,0 0.168,-0.058 0.104,-0.176l-2.276,-4.139c-0.076,-0.137 -0.036,-0.209 0.122,-0.212c0.044,0 0.09,0.003 0.143,0.005c0.155,0.011 0.199,-0.056 0.13,-0.201c-0.846,-1.705 -1.453,-3.492 -1.815,-5.358c-0.005,-0.025 -0.023,-0.03 -0.048,-0.01c-0.013,0.01 -0.025,0.02 -0.038,0.028c-0.051,0.033 -0.094,0.023 -0.133,-0.028c-0.303,-0.416 -0.321,-0.78 -0.053,-1.096c0.094,-0.114 0.157,-0.242 0.188,-0.382l0.179,-0.803c0.03,-0.153 0.125,-0.229 0.277,-0.229c0.151,0 0.298,0 0.441,0c0.036,0 0.039,0.007 0.006,0.02c-0.087,0.025 -0.113,0.071 -0.085,0.14c0.039,0.079 0.085,0.082 0.138,0.01l0.808,-1.066c0.107,-0.139 0.181,-0.124 0.219,0.049c0.023,0.12 -0.005,0.209 -0.087,0.265c-0.509,0.352 -0.438,0.464 0.214,0.336c0.121,-0.023 0.215,0.008 0.278,0.092c0.314,0.408 0.391,0.337 0.228,-0.214c-0.125,-0.423 -0.023,-0.731 0.303,-0.92c0.138,-0.081 0.196,-0.201 0.181,-0.362l-0.064,-0.645c-0.02,-0.191 0.064,-0.306 0.25,-0.349l0.66,-0.15c3.941,-0.607 5.496,-5.616 5.363,-8.909c-0.107,-2.761 -1.603,-6.278 -2.569,-9.22c0.244,-0.502 0.285,-1.032 0.122,-1.59l1.269,-0.543c0.133,-0.056 0.271,-0.061 0.411,-0.021c1.336,0.403 3.729,-1.75 4.496,-2.632c0.11,-0.123 0.214,-0.123 0.314,0.005c0.222,0.28 0.553,0.4 0.993,0.357Z" style="fill:#fcab03;fill-rule:nonzero;"/><path d="M91.489,89.609l0.694,1.224c1.264,5.084 4.303,11.485 10.42,11.888l-0.66,0.15c-0.186,0.043 -0.27,0.158 -0.25,0.349l0.064,0.645c0.015,0.161 -0.043,0.281 -0.181,0.362c-0.326,0.189 -0.428,0.497 -0.303,0.92c0.163,0.551 0.086,0.622 -0.228,0.214c-0.063,-0.084 -0.157,-0.115 -0.278,-0.092c-0.652,0.128 -0.723,0.016 -0.214,-0.336c0.082,-0.056 0.11,-0.145 0.087,-0.265c-0.038,-0.173 -0.112,-0.188 -0.219,-0.049l-0.808,1.066c-0.053,0.072 -0.099,0.069 -0.138,-0.01c-0.028,-0.069 -0.002,-0.115 0.085,-0.14c0.033,-0.013 0.03,-0.02 -0.006,-0.02c-0.143,0 -0.29,0 -0.441,0c-0.152,0 -0.247,0.076 -0.277,0.229l-0.179,0.803c-0.031,0.14 -0.094,0.268 -0.188,0.382c-0.268,0.316 -0.25,0.68 0.053,1.096c0.039,0.051 0.082,0.061 0.133,0.028c0.013,-0.008 0.025,-0.018 0.038,-0.028c0.025,-0.02 0.043,-0.015 0.048,0.01c0.362,1.866 0.969,3.653 1.815,5.358c0.069,0.145 0.025,0.212 -0.13,0.201c-0.053,-0.002 -0.099,-0.005 -0.143,-0.005c-0.158,0.003 -0.198,0.075 -0.122,0.212l2.276,4.139c0.064,0.118 0.031,0.176 -0.104,0.176l-0.332,0c-0.183,0 -0.229,0.079 -0.137,0.235l0.754,1.335c0.074,0.133 0.179,0.164 0.314,0.1l0.155,-0.079c0.202,-0.097 0.362,-0.051 0.48,0.137l0.802,1.305c0.107,0.179 0.265,0.273 0.47,0.286c0.578,0.041 0.993,0.313 1.249,0.811c0.084,0.168 0.216,0.283 0.392,0.349c0.53,0.196 0.93,0.548 1.198,1.057c0.036,0.075 0.013,0.113 -0.069,0.113l-0.186,0c-0.051,0 -0.058,0.018 -0.023,0.058l2.128,2.154c0.118,0.12 0.261,0.194 0.431,0.22c1.086,0.165 3.905,2.676 4.971,3.426c0.132,0.091 0.255,0.078 0.367,-0.036c0.03,-0.031 0.061,-0.062 0.089,-0.087c0.013,-0.013 0.033,-0.013 0.059,0l1.419,0.851c0.138,0.085 0.23,0.204 0.278,0.357c0.204,0.627 0.622,0.974 1.26,1.038c0.061,0.007 0.096,0.04 0.107,0.104l0.025,0.171c0,0.013 0.008,0.018 0.023,0.018c3.586,-0.135 7.165,-0.026 10.739,0.329c-3.846,0.252 -7.662,0.278 -11.448,0.084c-0.153,-0.011 -0.229,0.061 -0.229,0.214l0.076,9.308c0,0.174 -0.073,0.215 -0.224,0.128l-20.575,-12.5c-0.342,-0.443 -0.846,-0.594 -1.512,-0.454c-0.825,-0.622 -1.498,-0.535 -2.021,0.255c-0.092,0.135 -0.209,0.24 -0.352,0.311c-1.802,0.902 -2.977,2.238 -4.723,3.202c-1.478,0.818 -2.633,2.335 -3.754,3.137c-1.273,0.916 -2.542,1.831 -3.811,2.741l-2.388,-3.347c0.489,-0.461 0.943,-1.015 1.57,-1.357c2.34,-1.284 4.435,-2.908 6.288,-4.866c0.181,-0.188 0.423,-0.71 0.729,-1.564l3.021,-2.389c0.137,-0.104 0.14,-0.214 0.009,-0.328c-0.473,-0.421 -1.022,-0.699 -1.643,-0.831c-0.207,-0.623 0.532,-1.425 0.729,-2.022c0.033,-0.101 0.101,-0.15 0.208,-0.15c0.416,-0.005 0.627,0.178 0.638,0.548c0.005,0.165 0.087,0.275 0.245,0.326l0.884,0.298c0.291,0.1 0.376,0.008 0.255,-0.273l-1.002,-2.291c-0.036,-0.081 -0.01,-0.117 0.077,-0.112c0.056,0.003 0.107,0.005 0.152,0.005c0.104,0 0.135,-0.049 0.092,-0.148l-2.256,-4.97c-0.076,-0.174 -0.022,-0.26 0.169,-0.26c0.257,-0.006 -0.462,-2.575 -0.462,-2.6c-0.035,-0.181 0.015,-0.225 0.158,-0.127c0.043,0.03 0.09,0.037 0.13,0.025c0.056,-0.016 0.077,-0.051 0.064,-0.107c-0.092,-0.393 -0.263,-1.323 -0.512,-2.792c-0.041,-0.223 -0.008,-0.389 0.097,-0.492c0.094,-0.096 0.132,-0.208 0.112,-0.338c-0.507,-3.821 -0.189,-7.578 0.961,-11.272c0.051,-0.165 0.061,-0.333 0.028,-0.502c-0.161,-0.866 1.323,-3.308 2.149,-4.754c0.142,-0.247 0.26,-0.237 0.352,0.036c0.035,0.105 0.081,0.204 0.137,0.298c0.155,0.263 0.214,0.245 0.171,-0.058l-0.396,-2.771Z" style="fill:#f68002;fill-rule:nonzero;"/><path d="M88.309,124.112c0.621,0.132 1.17,0.41 1.643,0.831c0.131,0.114 0.128,0.224 -0.009,0.328l-3.021,2.389l-45.474,34.258c0.163,-0.258 0.242,-0.563 0.24,-0.92c-0.005,-0.171 0.064,-0.296 0.204,-0.383c1.537,-0.935 2.985,-1.98 4.341,-3.135c0.573,-0.487 0.856,-1.035 1.376,-1.588c0.105,-0.112 0.232,-0.199 0.383,-0.258c0.743,-0.285 1.32,-0.706 2.085,-1.027c1.386,-0.581 1.82,-1.468 1.3,-2.663c1.651,-1.178 3.28,-2.376 4.888,-3.597c8.111,-6.176 16.329,-12.156 24.315,-18.505l0.484,-0.123c0.154,-0.035 0.293,-0.102 0.421,-0.198l6.824,-5.409Z" style="fill:#ffdac2;fill-rule:nonzero;"/><path d="M86.922,127.66c-0.306,0.854 -0.548,1.376 -0.729,1.564c-1.853,1.958 -3.948,3.582 -6.288,4.866c-0.627,0.342 -1.081,0.896 -1.57,1.357c-1.015,0.772 -1.991,1.537 -2.927,2.288c-2.839,2.297 -5.888,4.021 -8.621,6.549c-1.075,0.994 -2.405,1.387 -3.611,2.314c-1.604,1.242 -2.425,1.874 -2.46,1.9c-2.809,1.904 -5.722,4.376 -8.128,6.109c-3.077,2.218 -6.144,4.453 -9.197,6.704c-0.92,0.68 -1.665,1.596 -2.511,2.213c-1.912,1.401 -3.826,2.768 -5.746,4.096c-0.244,0.163 -0.116,0.545 0.177,0.527c2.548,-0.127 6.813,0.426 8.839,-1.06c1.252,-0.913 3.322,-3.367 5.358,-3.984c0.163,-0.051 0.293,-0.145 0.393,-0.291c0.629,-0.915 1.463,-1.578 2.505,-1.98c0.176,-0.069 0.317,-0.181 0.426,-0.334c0.349,-0.487 0.818,-0.798 1.41,-0.935c0.147,-0.031 0.27,-0.107 0.367,-0.23c1.667,-2.118 4.285,-3.263 6.273,-5.113c0.675,-0.633 1.639,-0.813 2.164,-1.797c0.076,-0.145 0.186,-0.26 0.326,-0.342c2.58,-1.493 4.307,-3.749 6.612,-5.304c3.694,-2.503 7.272,-5.164 10.739,-7.983c1.269,-0.91 2.538,-1.825 3.811,-2.741c1.121,-0.802 2.276,-2.319 3.754,-3.137c1.746,-0.964 2.921,-2.3 4.723,-3.202c0.143,-0.071 0.26,-0.176 0.352,-0.311c0.523,-0.79 1.196,-0.877 2.021,-0.255l-52.105,39.542c-0.161,0.122 -0.342,0.181 -0.543,0.181l-8.924,-0.068c-0.038,0 -0.077,0.012 -0.113,0.035l-0.101,0.074l-0.719,-0.036c-0.275,-0.015 -0.303,-0.107 -0.084,-0.272l8.653,-6.686l45.474,-34.258Z" style="fill:#c83917;fill-rule:nonzero;"/><path d="M144.59,129.006c3.204,5.847 5.592,12.003 7.167,18.469c-0.262,1.114 -0.217,2.197 0.143,3.255c0.548,1.611 0.42,2.394 -0.074,3.847c-0.053,0.171 -0.171,0.275 -0.347,0.313l-1.804,0.39c-0.151,0.033 -0.27,0.11 -0.36,0.232c-0.425,0.597 -0.961,1.101 -1.603,1.517c-0.123,0.079 -0.255,0.117 -0.397,0.117l-0.513,0c-0.145,0 -0.255,0.061 -0.334,0.181c-0.216,0.329 -0.515,0.543 -0.894,0.642c-0.162,0.041 -0.314,0.018 -0.457,-0.068c-2.452,-1.532 -6.181,-4.235 -8.99,-4.65l-3.788,-2.243c-0.17,-0.099 -0.255,-0.25 -0.255,-0.443l0.026,-14.463l0.377,-1.787c0.028,-0.15 0.12,-0.227 0.273,-0.234c0.905,-0.034 1.781,-0.25 2.633,-0.65c0.036,-0.019 0.043,-0.041 0.025,-0.075c-0.02,-0.043 -0.033,-0.081 -0.036,-0.116c-0.002,-0.036 0.016,-0.064 0.054,-0.085c0.624,-0.314 1.479,-0.438 2.564,-0.377c0.281,0.015 6.294,-0.933 5.384,-2.46c-0.054,-0.096 -0.041,-0.178 0.045,-0.245c0.281,-0.229 0.388,-0.524 0.322,-0.886c-0.023,-0.141 0.035,-0.22 0.176,-0.24c0.207,-0.033 0.428,-0.013 0.663,0.059Z" style="fill:#f68002;fill-rule:nonzero;"/><path d="M96.896,129.602c-6.559,4.83 -13.074,9.707 -19.551,14.629c-4.435,3.374 -8.842,6.782 -13.224,10.224c-0.13,0.104 -0.277,0.17 -0.446,0.201c-0.514,0.094 -0.927,0.354 -1.236,0.782c-0.104,0.143 -0.245,0.238 -0.418,0.283l-0.566,0.148c-0.155,0.038 -0.277,0.12 -0.372,0.244c-0.872,1.135 -1.947,1.65 -2.883,2.629c-0.441,0.459 -1.004,1.007 -1.621,1.277c-1.351,0.579 -2.309,1.751 -3.097,2.355c-2.934,2.225 -5.923,4.371 -8.969,6.444c-2.738,1.861 -7.347,1.532 -10.416,0.851c-0.16,-0.036 -0.24,-0.135 -0.24,-0.298c0,-0.204 -0.086,-0.36 -0.259,-0.459l0.101,-0.074c0.036,-0.023 0.075,-0.035 0.113,-0.035l8.924,0.068c0.201,0 0.382,-0.059 0.543,-0.181l52.105,-39.542c0.666,-0.14 1.17,0.011 1.512,0.454Z" style="fill:#ffdac2;fill-rule:nonzero;"/><path d="M78.335,135.447l2.388,3.347c-3.467,2.819 -7.045,5.48 -10.739,7.983c-2.305,1.555 -4.032,3.811 -6.612,5.304c-0.14,0.082 -0.25,0.197 -0.326,0.342c-0.525,0.984 -1.489,1.164 -2.164,1.797c-1.988,1.85 -4.606,2.995 -6.273,5.113c-0.097,0.123 -0.22,0.199 -0.367,0.23c-0.592,0.137 -1.061,0.448 -1.41,0.935c-0.109,0.153 -0.25,0.265 -0.426,0.334c-1.042,0.402 -1.876,1.065 -2.505,1.98c-0.1,0.146 -0.23,0.24 -0.393,0.291c-2.036,0.617 -4.106,3.071 -5.358,3.984c-2.026,1.486 -6.291,0.933 -8.839,1.06c-0.293,0.018 -0.421,-0.364 -0.177,-0.527c1.92,-1.328 3.834,-2.695 5.746,-4.096c0.846,-0.617 1.591,-1.533 2.511,-2.213c3.053,-2.251 6.12,-4.486 9.197,-6.704c2.406,-1.733 5.319,-4.205 8.128,-6.109c0.035,-0.026 0.856,-0.658 2.46,-1.9c1.206,-0.927 2.536,-1.32 3.611,-2.314c2.733,-2.528 5.782,-4.252 8.621,-6.549c0.936,-0.751 1.912,-1.516 2.927,-2.288Z" style="fill:#fd3a0a;fill-rule:nonzero;"/><path d="M151.757,147.475c0.615,2.542 1.048,5.037 1.297,7.489c0.028,0.252 0.171,0.477 0.388,0.607c7.017,4.208 14.007,8.406 20.965,12.591c0.311,0.186 0.599,0.459 0.867,0.819c0.089,0.12 0.058,0.163 -0.087,0.13c-3.643,-0.747 -8.439,-0.151 -12.255,-0.268c-0.663,-0.02 -1.283,-0.204 -1.856,-0.553c-8.309,-5.044 -16.627,-10.058 -24.949,-15.039c2.809,0.415 6.538,3.118 8.99,4.65c0.143,0.086 0.295,0.109 0.457,0.068c0.379,-0.099 0.678,-0.313 0.894,-0.642c0.079,-0.12 0.189,-0.181 0.334,-0.181l0.513,0c0.142,0 0.274,-0.038 0.397,-0.117c0.642,-0.416 1.178,-0.92 1.603,-1.517c0.09,-0.122 0.209,-0.199 0.36,-0.232l1.804,-0.39c0.176,-0.038 0.294,-0.142 0.347,-0.313c0.494,-1.453 0.622,-2.236 0.074,-3.847c-0.36,-1.058 -0.405,-2.141 -0.143,-3.255Z" style="fill:#fd3a0a;fill-rule:nonzero;"/><path d="M50.747,147.97c0.349,0.695 0.5,1.429 0.449,2.202c-0.467,-0.645 -0.618,-1.379 -0.449,-2.202Z" style="fill:#fe5905;fill-rule:nonzero;"/><path d="M148.219,181.983l-0.367,0.612c-0.494,-0.166 -0.856,-0.081 -1.081,0.255c-3.211,4.853 -6.931,9.602 -11.666,12.518c-1.104,0.678 -2.202,1.373 -3.293,2.085c-0.191,0.12 -0.317,0.073 -0.377,-0.143c-0.095,-0.332 -0.276,-0.377 -0.539,-0.135c-0.074,0.064 -0.114,0.051 -0.127,-0.046l-0.031,-0.219c-0.02,-0.133 -0.096,-0.199 -0.234,-0.197c-2.432,0.085 -4.576,-1.256 -7.357,-1.33c-3.879,-0.097 -7.728,-0.696 -11.613,-0.905c-0.338,-0.02 -0.808,-0.148 -1.404,-0.387c-0.161,-0.061 -0.318,-0.061 -0.474,0c-0.8,0.316 -1.542,0.183 -2.227,-0.396c-0.108,-0.091 -0.233,-0.127 -0.373,-0.109c-1.937,0.255 -3.347,-2.161 -1.804,-3.176c0.537,-0.357 1.123,-0.166 1.756,-0.332l2.059,-0.053c0.196,-0.005 0.296,-0.104 0.296,-0.301l-0.051,-8.964c0.474,-0.827 0.479,-1.647 0.021,-2.468l0.096,-9.023c0,-0.148 -0.117,-0.27 -0.262,-0.27l-8.991,-0.005l-2.452,0.137l-9.064,-0.092c-0.163,0 -0.244,0.079 -0.244,0.24l-0.006,2.666c-1.363,-0.033 -2.717,-0.074 -4.063,-0.127c-1.218,-0.048 -2.181,0.665 -3.601,-0.011c-0.039,-0.017 -0.044,-0.043 -0.013,-0.071c0.028,-0.03 0.058,-0.061 0.092,-0.094c0.092,-0.092 0.073,-0.15 -0.054,-0.176c-2.187,-0.464 -3.617,-1.728 -4.292,-3.798c-0.044,-0.133 -0.048,-0.27 -0.02,-0.405l0.484,-2.105c0.033,-0.141 0.115,-0.248 0.242,-0.319c1.009,-0.551 1.687,-1.361 2.029,-2.432l16.323,-12.431c0.13,-0.097 0.265,-0.105 0.406,-0.018c17.09,10.283 34.184,20.563 51.285,30.835c0.634,0.38 0.966,0.774 0.991,1.19Z" style="fill:#0161bf;fill-rule:nonzero;"/><path d="M206.58,159.838c0.087,0.329 0.283,0.602 0.594,0.818c0.127,0.086 0.186,0.207 0.176,0.357c-0.288,3.897 -0.653,6.364 -1.091,7.399c-1.025,2.411 -1.473,5.027 -2.462,7.293c-1.106,2.534 -2.027,5.187 -3.245,7.512c-2.156,4.129 -4.109,7.254 -5.852,9.372c-1.344,1.624 -2.44,3.434 -3.648,4.708c-3.276,3.444 -5.73,5.876 -7.361,7.291c-6.702,5.819 -14.183,10.33 -22.449,13.537c-0.026,0.01 -0.495,0.142 -1.41,0.397c-0.915,0.25 -1.506,0.933 -2.337,1.198c-5.241,1.655 -10.568,2.942 -15.985,3.862c-2.477,0.423 -4.958,0.475 -7.442,0.153c-0.158,-0.023 -0.256,-0.114 -0.296,-0.27c-0.041,-0.178 -0.153,-0.299 -0.337,-0.352c2.075,-0.242 4.152,-0.487 6.23,-0.734c33.848,-4.009 62.301,-27.715 66.915,-62.541Z" style="fill:#d1e2f4;fill-rule:nonzero;"/><path d="M79.214,162.407c-0.342,1.071 -1.02,1.881 -2.029,2.432c-0.127,0.071 -0.209,0.178 -0.242,0.319l-0.484,2.105c-0.028,0.135 -0.024,0.272 0.02,0.405c0.675,2.07 2.105,3.334 4.292,3.798c0.127,0.026 0.146,0.084 0.054,0.176c-0.034,0.033 -0.064,0.064 -0.092,0.094c-0.031,0.028 -0.026,0.054 0.013,0.071c1.42,0.676 2.383,-0.037 3.601,0.011c1.346,0.053 2.7,0.094 4.063,0.127l0.006,6.123c0,0.163 0.081,0.245 0.244,0.245l8.677,0c0.163,0 0.245,-0.082 0.245,-0.245l0.142,-8.937l2.452,-0.137l-0.005,8.956c0,0.197 0.097,0.294 0.294,0.294l8.868,0.048c0.458,0.821 0.453,1.641 -0.021,2.468c-2.962,0.176 -5.934,0.183 -8.916,0.025c-0.161,-0.01 -0.24,0.067 -0.24,0.23l0,8.697c0,0.203 0.102,0.308 0.309,0.308l6.543,0.058c-0.633,0.166 -1.219,-0.025 -1.756,0.332c-1.543,1.015 -0.133,3.431 1.804,3.176c0.14,-0.018 0.265,0.018 0.373,0.109c0.685,0.579 1.427,0.712 2.227,0.396c0.156,-0.061 0.313,-0.061 0.474,0c0.596,0.239 1.066,0.367 1.404,0.387c3.885,0.209 7.734,0.808 11.613,0.905c2.781,0.074 4.925,1.415 7.357,1.33c0.138,-0.002 0.214,0.064 0.234,0.197l0.031,0.219c0.013,0.097 0.053,0.11 0.127,0.046c0.263,-0.242 0.444,-0.197 0.539,0.135c0.06,0.216 0.186,0.263 0.377,0.143c1.091,-0.712 2.189,-1.407 3.293,-2.085c4.735,-2.916 8.455,-7.665 11.666,-12.518c0.225,-0.336 0.587,-0.421 1.081,-0.255c-8.269,15.029 -24.796,22.193 -41.456,22.288c-19.826,0.059 -36.557,-10.474 -46.073,-27.603c-0.163,-0.293 -0.109,-0.543 0.158,-0.744l18.733,-14.129Zm18.49,18.559c0.002,-0.069 -0.056,-0.127 -0.125,-0.127l-9.026,-0.031c-0.069,0 -0.128,0.056 -0.128,0.128l-0.03,8.895c0,0.072 0.057,0.128 0.128,0.128l9.023,0.033c0.071,0 0.127,-0.058 0.127,-0.128l0.031,-8.898Z" style="fill:#034ba6;fill-rule:nonzero;"/><path d="M97.724,169.131l-0.142,8.937c0,0.163 -0.082,0.245 -0.245,0.245l-8.677,0c-0.163,0 -0.244,-0.082 -0.244,-0.245l-0.006,-6.123l0.006,-2.666c0,-0.161 0.081,-0.24 0.244,-0.24l9.064,0.092Z" style="fill:#fff;fill-rule:nonzero;"/><path d="M109.333,178.292l-8.868,-0.048c-0.197,0 -0.294,-0.097 -0.294,-0.294l0.005,-8.956l8.991,0.005c0.145,0 0.262,0.122 0.262,0.27l-0.096,9.023Z" style="fill:#fff;fill-rule:nonzero;"/><path d="M88.553,180.808l9.026,0.031c0.069,0 0.125,0.058 0.125,0.127l-0.031,8.898c0,0.07 -0.056,0.128 -0.127,0.128l-9.023,-0.033c-0.071,0 -0.128,-0.056 -0.128,-0.128l0.03,-8.895c0,-0.072 0.059,-0.128 0.128,-0.128Z" style="fill:#fff;fill-rule:nonzero;"/><path d="M109.312,180.76l0.051,8.964c0,0.197 -0.1,0.296 -0.296,0.301l-2.059,0.053l-6.543,-0.058c-0.207,0 -0.309,-0.105 -0.309,-0.308l0,-8.697c0,-0.163 0.079,-0.24 0.24,-0.23c2.982,0.158 5.954,0.151 8.916,-0.025Z" style="fill:#fff;fill-rule:nonzero;"/><path d="M148.219,181.983c0.632,0.925 -1.55,4.548 -2.156,5.409c-7.792,11.017 -21.475,17.795 -34.895,18.312c-0.556,0.02 -1.178,-0.123 -1.869,-0.431c-0.15,-0.064 -0.308,-0.086 -0.471,-0.064c-0.844,0.115 -1.655,0.006 -2.432,-0.326c16.66,-0.095 33.187,-7.259 41.456,-22.288l0.367,-0.612Z" style="fill:#d1e2f4;fill-rule:nonzero;"/><path id="click" d="M170.675,204.661c1.35,2.221 2.055,4.694 2.055,7.204c0,5.733 -3.679,11.013 -9.532,13.681l-5.726,2.616l-1.408,0.642c-2.62,1.195 -5.738,1.267 -8.428,0.195l-22.362,-8.283l2.105,-5.416l13.3,2.227l-6.888,-11.346l-11.088,-18.267l5.402,-2.463l11.088,18.271l2.668,-1.217l-4.888,-8.058l5.399,-2.463l4.888,8.059l2.668,-1.217l-3.774,-6.219l5.401,-2.464l3.775,6.22l2.669,-1.228l-2.59,-4.28l5.4,-2.457l2.591,4.28l7.274,11.987l0.001,-0.004Zm-51.649,-14.282c-1.504,-1.305 -2.351,-3.077 -2.351,-4.923c0,-3.817 3.619,-6.959 8.021,-6.966c4.41,0.004 8.035,3.151 8.035,6.974c0,0.793 -0.156,1.581 -0.462,2.329l1.417,2.322c0.969,-1.407 1.48,-3.015 1.48,-4.654c0,-4.977 -4.718,-9.075 -10.459,-9.085c-5.744,0.001 -10.47,4.099 -10.47,9.078c0,4.734 4.27,8.713 9.716,9.055l-1.425,-2.349c-1.325,-0.322 -2.531,-0.936 -3.502,-1.781Z" style="fill:#fe5905;fill-rule:nonzero;"/></svg>