<?xml version="1.0" encoding="UTF-8" standalone="no"?><!DOCTYPE svg PUBLIC "-//W3C//DTD SVG 1.1//EN" "http://www.w3.org/Graphics/SVG/1.1/DTD/svg11.dtd"><svg width="100%" height="100%" viewBox="0 0 480 480" version="1.1" xmlns="http://www.w3.org/2000/svg" xmlns:xlink="http://www.w3.org/1999/xlink" xml:space="preserve" xmlns:serif="http://www.serif.com/" style="fill-rule:evenodd;clip-rule:evenodd;stroke-linejoin:round;stroke-miterlimit:2;"><rect id="Artboard1" x="0" y="0" width="480" height="480" style="fill:none;"/><g id="Artboard11" serif:id="Artboard1"><g><path id="h1" d="M111.607,74.331l76.803,0.335l-0.386,129.796l-76.417,50.37l-0,-180.501Z" style="fill:#1978a5;"/><path id="h2" d="M266.757,74.331l0,79.644l78.215,-51.047l-0,-28.597l-78.215,0Z" style="fill:#1978a5;"/><path d="M111.221,354.37l77.575,-50.755l-0.772,126.391l-76.803,-0.335l-0,-75.301Z" style="fill:#1978a5;"/><path id="h3" d="M266.371,253.575l77.961,-50.666l-0.386,227.097l-77.575,-0.001l0,-176.43Z" style="fill:#1978a5;"/><path id="d1" d="M381.102,103.43l-303.389,197.452l-4.643,58.43l303.001,-197.116l5.031,-58.766Z" style="fill:#f9ce14;"/><clipPath id="_clip1"><rect id="d11" serif:id="d1" x="73.07" y="103.43" width="152.391" height="255.881"/></clipPath><g clip-path="url(#_clip1)"><path d="M381.102,103.43l-303.389,197.452l-4.643,58.43l303.001,-197.116l5.031,-58.766Z" style="fill:#f2c609;"/></g></g></g></svg>